<?xml version="1.0" encoding="UTF-8"?>
<svg xmlns="http://www.w3.org/2000/svg" xmlns:xlink="http://www.w3.org/1999/xlink" width="200px" height="200px" viewBox="0 0 200 200" version="1.1">
<g id="surface1">
<path style=" stroke:none;fill-rule:nonzero;fill:rgb(0%,0%,0%);fill-opacity:1;" d="M 189.230469 164.683594 L 136.761719 67.609375 L 136.761719 9.78125 C 136.761719 4.339844 132.207031 0 126.769531 0 L 73.210938 0 C 67.769531 0 63.292969 4.339844 63.292969 9.78125 L 63.292969 67.609375 L 10.777344 164.683594 C 6.773438 172.085938 6.972656 181.074219 11.28125 188.308594 C 15.589844 195.535156 23.402344 200 31.816406 200 L 168.164062 200 C 176.574219 200 184.40625 195.535156 188.714844 188.308594 C 193.015625 181.074219 193.238281 172.085938 189.230469 164.683594 Z M 108.664062 124.074219 C 113.363281 124.074219 117.171875 127.878906 117.171875 132.582031 C 117.171875 137.28125 113.355469 141.09375 108.664062 141.09375 C 103.964844 141.09375 100.152344 137.28125 100.152344 132.582031 C 100.152344 127.894531 103.960938 124.074219 108.664062 124.074219 Z M 84.734375 72.902344 C 89.433594 72.902344 93.242188 76.714844 93.242188 81.417969 C 93.242188 86.117188 89.433594 89.929688 84.734375 89.929688 C 80.03125 89.929688 76.222656 86.117188 76.222656 81.417969 C 76.226562 76.714844 80.03125 72.902344 84.734375 72.902344 Z M 84.734375 102.613281 C 92.347656 102.613281 98.527344 108.792969 98.527344 116.402344 C 98.527344 124.019531 92.347656 130.195312 84.734375 130.195312 C 77.113281 130.195312 70.9375 124.019531 70.9375 116.402344 C 70.9375 108.789062 77.113281 102.613281 84.734375 102.613281 Z M 163.953125 173.363281 C 162.179688 176.375 158.941406 178.15625 155.457031 178.15625 L 44.519531 178.15625 C 41.03125 178.15625 37.796875 176.375 36.027344 173.363281 C 34.257812 170.347656 34.207031 166.664062 35.902344 163.605469 L 49.238281 139.636719 C 51.140625 136.210938 54.890625 134.246094 58.792969 134.621094 C 76.5 136.308594 96.402344 151.457031 114.1875 150.78125 C 123.714844 150.417969 132.558594 146.945312 140.980469 142.304688 C 145.734375 139.675781 151.714844 141.398438 154.355469 146.148438 L 164.078125 163.597656 C 165.765625 166.660156 165.722656 170.351562 163.953125 173.363281 Z M 163.953125 173.363281 "/>
</g>
</svg>
